<svg xmlns="http://www.w3.org/2000/svg" width="129" height="183" viewBox="0 0 129 183">
    <defs>
        <linearGradient id="a" x1="49.862%" x2="49.862%" y1="98.9%" y2="-1.167%">
            <stop offset="0%" stop-color="#FFD677"/>
            <stop offset="100%" stop-color="#FF2E64"/>
        </linearGradient>
        <linearGradient id="b" x1="9.745%" x2="81.827%" y1="101.963%" y2="9.016%">
            <stop offset="0%" stop-color="#FFD677"/>
            <stop offset="100%" stop-color="#FF2E64"/>
        </linearGradient>
        <linearGradient id="c" x1="5.888%" x2="98.078%" y1="12.143%" y2="94.942%">
            <stop offset="0%" stop-color="#FFD677"/>
            <stop offset="100%" stop-color="#FF2E64"/>
        </linearGradient>
        <linearGradient id="d" x1="49.982%" x2="49.982%" y1="73.609%" y2="2.14%">
            <stop offset="0%" stop-color="#FFF" stop-opacity=".25"/>
            <stop offset="100%" stop-color="#FFF" stop-opacity="0"/>
        </linearGradient>
        <linearGradient id="e" x1="49.993%" x2="49.993%" y1="101.324%" y2="8.274%">
            <stop offset="0%" stop-color="#FFF" stop-opacity=".4"/>
            <stop offset="100%" stop-color="#FFF" stop-opacity="0"/>
        </linearGradient>
        <linearGradient id="f" x1="39.502%" x2="70.177%" y1="66.346%" y2="24.531%">
            <stop offset="0%" stop-color="#FFF" stop-opacity=".1"/>
            <stop offset="100%" stop-color="#FFF" stop-opacity="0"/>
        </linearGradient>
        <linearGradient id="g" x1="38.499%" x2="75.039%" y1="35.033%" y2="70.479%">
            <stop offset="0%" stop-color="#FFF" stop-opacity=".1"/>
            <stop offset="100%" stop-color="#FFF" stop-opacity="0"/>
        </linearGradient>
        <linearGradient id="h" x1="99.569%" x2="-.388%" y1="49.209%" y2="49.209%">
            <stop offset="0%" stop-color="#FFF" stop-opacity=".4"/>
            <stop offset="100%" stop-color="#FFF" stop-opacity="0"/>
        </linearGradient>
    </defs>
    <g fill="none" fill-rule="evenodd" transform="translate(-7 -2)">
        <path fill="#F2F4F5" fill-rule="nonzero" d="M71.23 2.3C35.917 2.3 7.214 30.95 7.214 66.2s28.703 63.9 64.018 63.9 64.018-28.65 64.018-63.9S106.546 2.3 71.23 2.3zm0 105.9c-23.292 0-42.227-18.9-42.227-42.15S47.938 23.9 71.231 23.9c23.293 0 42.228 18.9 42.228 42.15S94.524 108.2 71.23 108.2z"/>
        <ellipse cx="116.164" cy="66.05" fill="url(#a)" fill-rule="nonzero" rx="19.085" ry="19.05"/>
        <path fill="url(#b)" fill-rule="nonzero" d="M123.828 30.35c-.15-.15-.15-.45-.3-.6 0-.15-.151-.15-.151-.3-6.462-11.7-38.17-39.9-80.398-20.7-1.052.45-1.954.9-3.006 1.5-5.109 3.15-8.565 8.55-9.016 14.85-.751 10.5 7.213 19.5 17.733 20.25 4.808.3 9.317-1.2 12.773-3.9.601-.6 1.202-1.05 1.803-1.5 26.9-22.5 47.187-13.5 57.556-7.65.15.15.3.15.45.3.151.15.452.15.602.15 1.052 0 1.954-.75 2.104-1.8 0-.15 0-.45-.15-.6z"/>
        <path fill="url(#c)" fill-rule="nonzero" d="M123.828 102.35c-.15.15-.15.45-.3.6 0 .15-.151.15-.151.3-6.462 11.7-38.17 39.9-80.548 20.7-1.052-.45-1.954-.9-3.006-1.5-5.11-3.15-8.566-8.55-9.016-14.85-.752-10.5 7.213-19.5 17.732-20.25 4.81-.3 9.317 1.2 12.774 3.9.6.6 1.202 1.05 1.803 1.5 26.9 22.5 47.187 13.5 57.556 7.65.15-.15.3-.15.45-.3.15-.15.451-.15.602-.15 1.052 0 1.953.75 2.104 1.8.15.15.15.3 0 .6z"/>
        <path fill="url(#d)" fill-rule="nonzero" d="M81.45 13.25c19.085 0 35.315 8.1 41.626 19.35.451-.3.902-.9.902-1.5 0-.3 0-.45-.15-.6-.15-.15-.15-.45-.3-.6 0-.15-.151-.15-.151-.3-6.462-11.85-38.17-40.05-80.398-20.85-1.052.45-1.954.9-3.006 1.5-5.109 3.15-8.565 8.55-9.016 14.85-.45 6.15 2.104 11.7 6.312 15.45 1.502-15.15 20.738-27.3 44.18-27.3z"/>
        <path fill="url(#e)" fill-rule="nonzero" d="M61.463 91.1c.601.6 1.202 1.05 1.803 1.5 26.9 22.5 47.187 13.5 57.556 7.65.15-.15.3-.15.45-.3.151-.15.452-.15.602-.15.45 0 .751.15 1.202.3-6.161 11.25-22.541 19.35-41.626 19.35-23.443 0-42.679-12.15-44.181-27.45 3.005-2.7 6.912-4.5 11.42-4.8 4.81-.3 9.167 1.2 12.774 3.9z"/>
        <path fill="url(#f)" fill-rule="nonzero" d="M86.86 27.05c15.328-4.05 27.05 1.35 34.112 5.4.15.15.3.15.451.3.15.15.451.15.601.15 1.052 0 1.954-.75 2.104-1.8 0-.3 0-.45-.15-.6-.15-.15-.15-.45-.3-.6 0-.15-.15-.15-.15-.3C117.665 18.95 90.917-5.35 54.4 4.7c12.924 3.9 24.345 11.7 32.46 22.35z"/>
        <path fill="url(#g)" fill-rule="nonzero" d="M121.874 99.8c-.15 0-.45 0-.601.15-.15.15-.3.15-.45.3-7.214 4.05-19.236 9.6-34.715 5.25-8.415 10.65-20.137 18.45-33.662 22.05 37.57 11.4 64.92-13.5 70.93-24.3 0-.15.151-.15.151-.3.15-.15.15-.45.3-.6 0-.15.15-.45.15-.6-.15-1.2-1.051-1.95-2.103-1.95z"/>
        <path d="M39.372 47.3l-.6-7.95c-2.405 3-4.509 6.3-6.162 9.9l6.762-1.95zM80.999 30.35l10.068 3.9 9.318 1.65a42.197 42.197 0 0 0-16.38-9.75l-3.006 4.2z"/>
        <g fill="#231F20" fill-rule="nonzero">
            <path d="M15.629 159.95c-1.202 0-2.405-.15-3.457-.6-1.052-.45-1.803-1.05-2.554-1.8-.752-.75-1.203-1.65-1.653-2.55-.3-.9-.601-1.95-.601-3s.15-2.1.6-3c.451-.9.902-1.8 1.654-2.55.751-.75 1.502-1.35 2.554-1.8 1.052-.45 2.104-.6 3.457-.6 1.352 0 2.404.15 3.456.6 1.052.45 1.803 1.05 2.555 1.8.751.75 1.202 1.65 1.653 2.55.3.9.6 1.95.6 3s-.15 2.1-.6 3c-.3.9-.902 1.8-1.653 2.55-.752.75-1.503 1.35-2.555 1.8-1.052.45-2.254.6-3.456.6zM11.57 152c0 .75.15 1.35.3 1.8.151.6.452 1.05.902 1.5.301.45.752.75 1.353.9.601.15 1.052.3 1.653.3s1.052-.15 1.653-.3l1.353-.9c.45-.3.6-.9.901-1.5.3-.6.3-1.2.3-1.95 0-.6-.15-1.35-.3-1.8-.15-.45-.45-1.05-.901-1.5-.451-.45-.752-.75-1.353-.9-.45-.3-1.052-.3-1.653-.3s-1.052.15-1.653.3-.902.6-1.353.9c-.3.45-.6.9-.901 1.5-.15.6-.3 1.2-.3 1.95zM34.113 147.65c-1.203 0-2.254.3-3.156.75-.902.45-1.653 1.05-2.104 1.95v9.3h-3.907V144.2h3.606v3.3c.602-1.05 1.203-1.95 2.104-2.55.902-.6 1.804-1.05 2.705-1.05h.751v3.75zM40.875 159.8c-1.052 0-1.953-.15-2.855-.6a8.754 8.754 0 0 1-2.254-1.65c-.601-.6-1.052-1.5-1.353-2.55-.3-.9-.45-1.95-.45-3s.15-2.1.6-3.15c.451-1.05.902-1.8 1.503-2.55.601-.75 1.353-1.35 2.254-1.65.902-.45 1.804-.6 2.856-.6 1.202 0 2.254.3 3.155.75.902.6 1.654 1.2 2.255 2.1v-2.7h3.456v14.7c0 1.2-.15 2.1-.601 3-.45.9-1.052 1.65-1.803 2.25-.752.6-1.653 1.05-2.705 1.5-1.052.3-2.255.45-3.457.45-1.653 0-3.156-.3-4.358-.9-1.202-.6-2.104-1.35-3.005-2.4l2.104-2.1c.6.75 1.352 1.35 2.254 1.65.901.3 1.803.6 2.855.6.601 0 1.202-.15 1.803-.3s1.052-.45 1.503-.75c.45-.3.751-.75 1.052-1.35.3-.6.3-1.2.3-1.95v-1.95c-.45.9-1.202 1.5-2.103 2.1-.902.75-1.954 1.05-3.006 1.05zm1.353-3.15c.45 0 .901 0 1.202-.15.45-.15.751-.3 1.052-.6.3-.3.6-.45.901-.9.301-.3.451-.6.602-1.05v-3.75c-.301-.9-.902-1.65-1.654-2.25-.75-.6-1.502-.9-2.404-.9-.601 0-1.202.15-1.653.45-.45.3-.902.6-1.352 1.05-.451.45-.602.9-.752 1.5-.15.6-.3 1.2-.3 1.8 0 .6.15 1.2.3 1.8.15.6.451 1.05.902 1.5.45.45.901.75 1.352.9.601.45 1.203.6 1.804.6zM56.354 159.95c-.752 0-1.503-.15-2.104-.3-.601-.3-1.202-.6-1.653-1.05-.451-.45-.902-.9-1.052-1.5-.3-.6-.451-1.2-.451-1.95s.15-1.35.45-1.95c.301-.6.752-1.2 1.353-1.65.601-.45 1.202-.75 2.104-1.05.902-.3 1.653-.3 2.705-.3.751 0 1.353 0 1.954.15l1.803.45v-.9c0-1.05-.3-1.8-.902-2.4-.6-.6-1.502-.9-2.554-.9a6.24 6.24 0 0 0-2.405.45c-.751.3-1.653.75-2.404 1.35l-1.202-2.55c1.953-1.35 4.207-1.95 6.461-1.95 2.255 0 3.908.6 5.26 1.65 1.202 1.05 1.803 2.7 1.803 4.8v4.8c0 .45.15.75.301.9.15.15.45.3.902.3v3.3c-.3.15-.752.15-1.052.15h-.902c-.751 0-1.352-.15-1.653-.45a2.9 2.9 0 0 1-.751-1.35l-.15-.9c-.752.9-1.503 1.65-2.555 2.1-1.203.45-2.254.75-3.306.75zm1.052-2.85c.6 0 1.352-.15 1.953-.3.601-.3 1.052-.6 1.353-.9.45-.3.6-.75.6-1.05v-1.8c-.45-.15-1.051-.3-1.502-.45-.45-.15-1.052-.15-1.653-.15-1.052 0-1.803.3-2.555.75-.6.45-.901 1.05-.901 1.8 0 .6.3 1.2.75 1.65.452.45 1.203.45 1.955.45zM82.05 159.65h-3.906v-8.7c0-1.2-.15-2.1-.601-2.7-.451-.6-1.052-.9-1.804-.9-.45 0-.751.15-1.202.3-.45.15-.751.45-1.202.6-.3.3-.752.6-1.052 1.05-.3.45-.451.9-.601 1.35v9h-4.058V144.2h3.607v2.85c.601-1.05 1.352-1.8 2.555-2.25 1.052-.6 2.254-.9 3.606-.9.902 0 1.804.15 2.405.6.6.3 1.052.75 1.352 1.35.3.6.601 1.2.752 1.95.15.75.15 1.5.15 2.25v9.6zM84.004 142.1v-3.9h3.908v3.9h-3.908zm0 17.55V144.2h3.908v15.45h-3.908zM88.964 157.25l8.565-10.2h-8.265v-2.7h12.473v2.4l-8.566 10.2h8.716v2.7H88.964v-2.4zM110.152 159.95c-1.202 0-2.404-.15-3.306-.6-1.052-.45-1.803-1.05-2.554-1.8-.752-.75-1.202-1.65-1.653-2.55-.451-.9-.601-1.95-.601-3s.15-2.1.6-3.15c.452-1.05.902-1.8 1.654-2.55.751-.75 1.502-1.35 2.554-1.8 1.052-.45 2.104-.6 3.457-.6 1.352 0 2.404.15 3.456.6 1.052.45 1.803 1.05 2.555 1.8.751.75 1.202 1.65 1.653 2.55.3.9.601 1.95.601 3v1.35h-12.022c0 .6.15 1.2.45 1.65.301.45.602.9.902 1.2.3.3.752.6 1.203.75.45.15.901.3 1.502.3.752 0 1.503-.15 2.254-.6.752-.45 1.203-.9 1.503-1.5l3.457.9c-.602 1.2-1.503 2.1-2.705 2.85-1.653.9-3.156 1.2-4.96 1.2zm4.058-9.3c-.15-1.2-.601-2.1-1.353-2.85-.75-.75-1.653-1.05-2.705-1.05-.6 0-1.051.15-1.502.3-.451.15-.902.45-1.202.75-.301.3-.602.75-.902 1.2-.3.45-.3 1.05-.451 1.5l8.115.15z"/>
            <path d="M125.63 159.95c-1.051 0-2.103-.15-3.005-.6a8.754 8.754 0 0 1-2.254-1.65c-.6-.75-1.202-1.65-1.502-2.55-.301-.9-.602-1.95-.602-3.15 0-1.05.15-2.1.451-3.15.3-1.05.752-1.8 1.503-2.55.601-.75 1.352-1.35 2.254-1.65.902-.45 1.803-.6 2.705-.6 1.052 0 2.104.3 3.006.9.901.6 1.653 1.2 2.104 2.1v-8.85h3.907v16.95c0 .45.15.75.3.9.15.15.451.3.902.3v3.3c-.751.15-1.353.15-1.954.15-.751 0-1.352-.15-1.653-.45-.45-.3-.6-.75-.751-1.35l-.15-1.05c-.601 1.05-1.353 1.8-2.255 2.25-.901.45-1.953.75-3.005.75zm1.053-3.3c.3 0 .751 0 1.202-.15.45-.15.751-.3 1.052-.6.3-.3.601-.45.902-.9.3-.45.45-.6.6-1.05v-3.75c-.3-.9-.9-1.65-1.652-2.1-.752-.6-1.503-.9-2.405-.9-.6 0-1.202.15-1.653.45-.45.3-.901.6-1.352 1.05-.3.45-.601.9-.902 1.5-.3.6-.3 1.2-.3 1.8 0 .6.15 1.2.3 1.8.15.6.451 1.05.902 1.5.45.45.901.75 1.352.9.451.15 1.353.45 1.954.45z"/>
        </g>
        <g fill="#231F20" fill-rule="nonzero">
            <path d="M36.968 184.7c-1.052 0-2.104-.15-3.006-.6-.901-.45-1.803-1.05-2.404-1.8-.751-.75-1.202-1.65-1.653-2.55-.45-.9-.601-1.95-.601-3.15 0-1.05.15-2.1.601-3 .45-.9.902-1.8 1.653-2.55.601-.75 1.503-1.35 2.404-1.65.902-.45 1.954-.6 3.006-.6 1.052 0 2.104.15 3.005.6.902.45 1.654 1.05 2.405 1.65.751.6 1.202 1.5 1.653 2.55.45.9.601 1.95.601 3v.6H31.107c0 .9.3 1.65.601 2.4.3.75.752 1.35 1.353 1.95.6.6 1.202 1.05 1.803 1.35.751.3 1.503.45 2.254.45.601 0 1.052-.15 1.653-.15.451-.15 1.052-.3 1.503-.6.45-.3.902-.6 1.202-.9.3-.3.601-.75.752-1.2l1.352.3c-.3.6-.601 1.05-1.052 1.5-.45.45-.901.9-1.503 1.2-.6.3-1.202.6-1.803.75-.601.15-1.503.45-2.254.45zm6.011-8.55c0-.9-.3-1.8-.601-2.55-.3-.75-.751-1.35-1.353-1.95-.6-.6-1.202-.9-1.803-1.2a6.04 6.04 0 0 0-2.254-.45 6.04 6.04 0 0 0-2.254.45c-.752.3-1.353.75-1.804 1.2-.6.6-.901 1.2-1.352 1.95-.3.75-.45 1.65-.601 2.4l12.022.15zM49.741 184.4v-12.3h-2.103v-1.2h2.103v-2.25c0-1.95.451-3.3 1.203-4.35.751-1.05 1.803-1.65 3.155-1.65.602 0 1.203.15 1.653.3.602.15 1.052.45 1.353.75l-.601 1.05c-.3-.15-.601-.45-1.052-.6-.45-.15-.751-.15-1.202-.15-1.052 0-1.804.45-2.254 1.2-.602.75-.752 1.95-.752 3.45v2.4h4.358v1.2h-4.358v12.3l-1.503-.15zM62.214 184.4v-12.3H60.11v-1.2h2.104v-2.25c0-1.95.451-3.3 1.203-4.35.751-1.05 1.803-1.65 3.155-1.65.601 0 1.203.15 1.653.3.602.15 1.052.45 1.353.75l-.601 1.05c-.3-.15-.601-.45-1.052-.6-.451-.15-.752-.15-1.202-.15-1.052 0-1.804.45-2.254 1.2-.602.75-.752 1.95-.752 3.45v2.4h4.358v1.2h-4.358v12.3l-1.503-.15zM80.248 184.7c-1.052 0-2.104-.15-3.006-.6-.902-.45-1.653-1.05-2.404-1.65-.752-.6-1.203-1.65-1.503-2.55-.3-.9-.601-1.95-.601-3s.15-2.1.6-3c.452-.9.902-1.8 1.654-2.55.751-.75 1.503-1.35 2.404-1.65.902-.45 1.954-.6 3.006-.6 1.052 0 2.104.15 3.005.6.902.45 1.653 1.05 2.405 1.65.751.75 1.202 1.5 1.653 2.55.45.9.6 1.95.6 3s-.15 2.1-.6 3c-.451.9-.902 1.8-1.653 2.55-.752.75-1.503 1.35-2.405 1.65-1.052.45-2.104.6-3.155.6zm-6.012-7.8c0 .9.15 1.8.451 2.55.3.75.752 1.5 1.353 2.1.6.6 1.202 1.05 1.953 1.35.752.3 1.503.45 2.405.45a6.24 6.24 0 0 0 2.404-.45c.752-.3 1.353-.75 1.954-1.5.6-.6.901-1.35 1.352-2.1.3-.75.451-1.65.451-2.55 0-.9-.15-1.8-.45-2.55-.301-.75-.752-1.5-1.353-2.1a9.646 9.646 0 0 0-1.954-1.5c-.751-.3-1.503-.6-2.404-.6-.752 0-1.503.15-2.254.6-.752.3-1.353.9-1.954 1.5s-1.052 1.35-1.352 2.1c-.451.9-.602 1.8-.602 2.7zM100.385 170.45c-1.353 0-2.555.45-3.607 1.2s-1.803 1.8-2.104 3.15v9.6h-1.503v-15.3h1.353v3.75c.6-1.05 1.202-1.95 2.104-2.7.901-.75 1.803-1.05 2.855-1.2h1.051l-.15 1.5zM113.308 183.65c-.15 0-.15.15-.45.15-.15.15-.451.15-.752.3-.3.15-.601.15-.902.3-.3.15-.751.15-1.202.15-.45 0-.751 0-1.202-.15-.3-.15-.751-.3-.902-.6-.15-.3-.45-.45-.6-.9-.151-.45-.301-.75-.301-1.2v-11.55h-2.104v-1.2h2.104v-5.25h1.502v5.25h3.607v1.2H108.5v11.25c0 .6.15 1.05.602 1.35.45.3.901.45 1.352.45.601 0 1.202-.15 1.653-.3.45-.15.751-.3.751-.45l.451 1.2z"/>
        </g>
        <path fill="url(#h)" fill-rule="nonzero" d="M116.164 60.05c7.063 0 13.524 1.95 19.085 5.4-.451-10.2-8.867-18.3-19.085-18.3-10.37 0-18.785 8.1-19.086 18.3 5.41-3.45 12.023-5.4 19.086-5.4z"/>
    </g>
</svg>
